<?xml version="1.0" encoding="UTF-8"?> <svg xmlns="http://www.w3.org/2000/svg" viewBox="0 0 565.11 65.66"><defs><style>.cls-1{fill:#fefefe;}.cls-2{fill:#df0025;}.cls-3{fill:#1e2f60;}.cls-4{fill:#616e90;}.cls-5{fill:#142559;}.cls-6{fill:#152659;}.cls-7{fill:#192a5d;}.cls-8{fill:#fcfcfd;}.cls-9{fill:#1c2c5e;}.cls-10{fill:#e9eaef;}</style></defs><title>Asset 3</title><g id="Layer_2" data-name="Layer 2"><g id="Layer_1-2" data-name="Layer 1"><path class="cls-1" d="M116,0Q339.55,0,563.09,0c1.64,0,2,.36,2,2-.12,6-.05,12.09-.05,18.14a.48.48,0,0,1-.58,0c-1.29-2.51-3-4.49-6.07-4.68A6.36,6.36,0,0,0,552,19.76a6,6,0,0,0,2.49,7.07,6.42,6.42,0,0,0,7.53-.32,11.52,11.52,0,0,0,2.46-3.3.48.48,0,0,1,.58,0c0,13.47,0,26.95,0,40.42,0,1.59-.3,2-2,2q-223.55-.07-447.09,0a4,4,0,0,1-.71-2.9q0-29.89,0-59.79A4,4,0,0,1,116,0Z"></path><path class="cls-1" d="M99,0h14.88a4,4,0,0,1,.71,2.89q0,29.9,0,59.79a4,4,0,0,1-.71,2.9H49.93c0-1,.79-1,1.34-1.15a10.94,10.94,0,0,0,4.89-3.57A78.92,78.92,0,0,1,61.69,55Q73.47,43,85,30.79c3.67-3.87,2.17-9.13-3-10.59a11.1,11.1,0,0,0-3-.34c-8.46,0-16.92,0-25.37,0a9.1,9.1,0,0,0-7,2.88c-2,2.16-4.25,4.16-6.35,6.46a3.31,3.31,0,0,0,2.42.43c6.2,0,12.4,0,18.59,0a13.68,13.68,0,0,1,3.26.27c2.49.61,3.22,2.25,1.78,4.36a30.3,30.3,0,0,1-3.49,4.19q-4.68,4.74-9.43,9.42c-2.8,2.75-6.29,3.12-9.23.54A143.29,143.29,0,0,1,32.44,37.3a5.59,5.59,0,0,1,.2-7.77c4.6-5,9-10.11,13.89-14.82A13.07,13.07,0,0,1,56,11.27c8.74,0,17.49,0,26.24,0a10.84,10.84,0,0,0,7.34-2.78C92.8,5.81,95.39,2.39,99,0Z"></path><path class="cls-2" d="M99,0c-2,3.06-5.18,5-7.65,7.69-3,3.19-6.57,4.38-11,4.26-8.23-.24-16.48-.05-24.71-.08a12.75,12.75,0,0,0-9.87,4.34c-4,4.39-8.13,8.73-12.2,13.1-2.79,3-2.69,5.95.3,8.74,3.41,3.18,6.81,6.36,10.25,9.5,3.1,2.83,6,2.75,9-.26,4-4,7.87-8,11.78-12a7.49,7.49,0,0,0,1.42-1.9c.72-1.45.44-2.58-1.35-2.88a17.79,17.79,0,0,0-2.82-.24c-7.07,0-14.15,0-21.22,0-.54,0-1.29.32-1.59-.29s.39-1,.76-1.42c2.06-2.17,4.11-4.34,6.24-6.43a9.93,9.93,0,0,1,7.28-2.94c8.38.06,16.76,0,25.15,0a11.87,11.87,0,0,1,5.1.95,6.64,6.64,0,0,1,2.1,10.63C76,41.07,66.1,51.3,56.24,61.62a14.41,14.41,0,0,1-6.31,4h-3.5a9.23,9.23,0,0,1-5.34-3c-8.2-8.27-16.46-16.47-24.69-24.7-2.71-2.72-2.75-4.86-.17-7.75Q27.63,17.4,38.87,4.5C40.68,2.43,42.53.34,45.56,0Z"></path><path class="cls-1" d="M45.56,0c-3.05,1.24-5.17,3.56-7.28,6-7.12,8.17-14.34,16.25-21.52,24.37-2.84,3.22-2.81,4.48.24,7.5Q29.33,50.11,41.64,62.35a18.09,18.09,0,0,0,4.79,3.27c-14.92,0-29.83,0-44.75,0C.32,65.66,0,65.35,0,64,.06,49.37,0,34.76,0,20.15c.87-.25,1.39.36,1.86.86,2,2.08,4.27,3.74,6.27,5.75s3.82,2,5.69-.23A74.39,74.39,0,0,0,19,20.38c-.7-.79-1.56-.51-2.31-.51-4.66,0-9.32,0-14,0-.93,0-1.91.15-2.7-.57C0,13.37.09,7.47,0,1.57,0,.26.27,0,1.57,0,16.23.06,30.89,0,45.56,0Z"></path><ellipse class="cls-3" cx="114.93" cy="32.83" rx="1.55" ry="46.37"></ellipse><path class="cls-2" d="M0,19.28q9.39,0,18.79-.06c.45,0,1.09-.27,1.31.4s-.27,1-.59,1.33c-2,2.31-4,4.64-6.05,6.88a3.35,3.35,0,0,1-5,.13c-2.26-2.06-4.4-4.25-6.61-6.35-.56-.53-.94-1.3-1.81-1.46Z"></path><path class="cls-4" d="M565.06,23.21l-.34.1a2.26,2.26,0,0,1,0-3.25.26.26,0,0,1,.36.09Z"></path><path class="cls-5" d="M433.71,14a63.78,63.78,0,0,1,16.83,2.24c1.49.42,2.2,1.1,2,2.74s.48,3.66-.31,4.42c-1,1-2.7-.63-4.12-1-6.94-1.95-13.95-3-21.14-1.73a12.09,12.09,0,0,0-3.07,1A2.89,2.89,0,0,0,422,24.33,3,3,0,0,0,424.24,27a20,20,0,0,0,5.33,1.06c5.28.52,10.63.4,15.83,1.66a25.67,25.67,0,0,1,3.34,1c3.42,1.31,5.87,3.55,6.33,7.36A9.93,9.93,0,0,1,451,47.81a20.45,20.45,0,0,1-10.4,3.55c-7.95.8-15.7.12-23.06-3.29-2.13-1-3.48-5.11-2.41-7.22.47-.93,1-.24,1.41,0a40.25,40.25,0,0,0,21.05,4.66,18.38,18.38,0,0,0,6.59-1.35c2.55-1.07,3.84-2.73,3.55-4.67-.37-2.45-2.27-3.23-4.35-3.62-4.45-.84-9-.9-13.47-1.28a43.09,43.09,0,0,1-8.61-1.4c-3.17-.93-5.71-2.63-6.35-6.17a8.89,8.89,0,0,1,3.6-9.41c3.88-2.83,8.38-3.52,13-3.64C432.25,13.94,433,14,433.71,14Z"></path><path class="cls-5" d="M480.19,51.82a22.82,22.82,0,0,1-16.25-6.42,17.09,17.09,0,0,1-.1-25.06c9.53-9.41,26.5-8.93,35.31,1a17.35,17.35,0,0,1-1.32,24.34A23.77,23.77,0,0,1,480.19,51.82Z"></path><path class="cls-5" d="M538.8,41.5c0-8.37.08-16.22,0-24.07,0-2.11.56-2.72,2.66-2.65,4.39.16,4.39.05,4.39,4.35,0,9.84,0,19.67,0,29.5,0,1.75-.53,2.11-2.22,2.27-3.38.32-5.62-.82-7.79-3.49-6-7.47-12.43-14.66-18.69-21.95-.56-.65-1.15-1.28-1.84-2a4.65,4.65,0,0,0-.34,2.64c0,7.57-.05,15.15,0,22.72,0,1.62-.45,2.11-2.1,2.09-4.8-.07-4.8,0-4.8-4.81,0-9.69,0-19.37,0-29.06,0-1.71.48-2.05,2.18-2.25,4.35-.54,7.19,1.06,9.86,4.54,5.23,6.8,11,13.2,16.53,19.77C537.21,39.77,537.85,40.44,538.8,41.5Z"></path><path class="cls-5" d="M402.46,41.61V19.15c0-4.33,0-4.21,4.41-4.37,2.08-.08,2.52.6,2.5,2.56q-.14,15.63,0,31.25c0,1.66-.39,2.16-2.16,2.32-3.39.3-5.62-.84-7.79-3.5-6.25-7.68-12.82-15.1-19.27-22.61l-1.29-1.47a3.81,3.81,0,0,0-.29,2.29c0,7.65-.05,15.3,0,22.94,0,1.62-.28,2.34-2.14,2.31-4.82-.08-4.83,0-4.83-4.8,0-9.69.05-19.37,0-29.06,0-1.72.48-2,2.17-2.26,4.48-.61,7.32,1.15,10,4.66C389.27,26.49,395.25,33.17,401,40,401.34,40.39,401.68,40.74,402.46,41.61Z"></path><path class="cls-5" d="M288.36,51.79c-7.63-.07-14.58-1.94-19.67-8.11A17.35,17.35,0,0,1,270.45,20c6-5.42,13.15-6.84,20.91-6.19,6.63.54,12.39,3,16.92,8,1.19,1.32,1.2,2-.63,2.41a7.69,7.69,0,0,0-1.84.68c-1.67.8-2.92.53-4.43-.76-5.69-4.85-16.71-5.58-23.1-1.7-4.61,2.79-6.87,6.83-6,12.27s4.47,8.42,9.42,9.75c7.56,2,14.74,1.41,20.85-4.13a1.39,1.39,0,0,1,1.93-.16c.87.53,1.79,1,2.69,1.44,2.34,1.26,2.34,1.34.38,3.26C302.2,50.1,295.6,51.82,288.36,51.79Z"></path><path class="cls-5" d="M350.1,32.91c0,5.31-.05,10.63,0,15.94,0,1.52-.45,2-2,2-5,0-5,.07-5-4.86,0-3.2-.06-6.4,0-9.61,0-1.44-.28-2.08-1.91-2.06q-9.07.14-18.15,0c-1.58,0-2,.55-1.95,2,.09,4.22,0,8.44.05,12.67,0,1.27-.33,1.79-1.71,1.83-5.24.15-5.24.2-5.24-5,0-9.61,0-19.22,0-28.83,0-1.73.44-2.24,2.2-2.21,4.77.08,4.77,0,4.77,4.66,0,2.26.05,4.52,0,6.77,0,1.24.25,1.84,1.68,1.83,6.19-.07,12.39-.06,18.58,0,1.37,0,1.77-.47,1.74-1.78-.07-3.2,0-6.41-.05-9.61-.05-1.46.47-1.84,1.88-1.85,5.08,0,5.08-.09,5.08,5Z"></path><path class="cls-5" d="M140.09,32.65c0-5.31,0-10.63,0-15.94,0-1.38.34-1.9,1.82-1.92,5.14-.06,5.14-.11,5.14,4.95,0,2.26,0,4.51,0,6.77,0,1.13.37,1.53,1.52,1.53,6.27,0,12.53-.06,18.8,0,1.44,0,1.69-.63,1.67-1.85-.06-3.21,0-6.41-.05-9.61,0-1.31.36-1.76,1.72-1.79,5.24-.12,5.24-.17,5.24,5.07,0,9.46,0,18.92,0,28.38,0,1.92-.35,2.71-2.49,2.63-4.48-.16-4.48,0-4.48-4.55,0-3.35,0-6.7,0-10,0-1.36-.3-2-1.8-1.94-6.2.07-12.39,0-18.59,0-1.25,0-1.62.44-1.61,1.66.06,4.22,0,8.44.05,12.66,0,1.52-.28,2.21-2,2.2-4.94,0-4.94.05-4.94-4.9Z"></path><path class="cls-5" d="M221.5,28.27c0,3.35-.11,6.7,0,10.05.17,4.39-1.84,7.48-5.36,9.82-5.38,3.57-11.37,4-17.58,3.6a21.37,21.37,0,0,1-12.8-4.91,10,10,0,0,1-3.69-8q.09-10.92,0-21.84c0-1.54.27-2.19,2-2.17,4.95,0,4.95,0,4.95,4.92,0,5.75.06,11.51,0,17.26,0,3.21,1.27,5.57,4.13,6.82a20.78,20.78,0,0,0,17.53-.07,6.47,6.47,0,0,0,3.92-6.49c-.07-6.77,0-13.54-.06-20.31,0-1.61.44-2.14,2.1-2.13,4.87,0,4.87,0,4.87,4.74Z"></path><path class="cls-5" d="M245.88,14.83c5.54,0,11.08.05,16.62,0,1.51,0,2,.39,2,1.95-.14,5.09.57,4.2-4.3,4.27-2.84,0-5.69.13-8.52,0-2-.12-2.43.66-2.41,2.51.09,8.23,0,16.46.08,24.68,0,2-.44,2.79-2.62,2.71-4.28-.17-4.29-.05-4.29-4.28,0-7.8,0-15.59,0-23.38,0-1.71-.43-2.3-2.21-2.24-3.71.14-7.44,0-11.15.07-1.46,0-1.91-.49-1.87-1.89.11-5.24-.58-4.26,4.21-4.32S241.07,14.83,245.88,14.83Z"></path><path class="cls-6" d="M357.38,32.61c0-5.25.05-10.49,0-15.73,0-1.63.49-2.11,2.12-2.09,4.78.05,4.78,0,4.78,4.82,0,9.69-.05,19.37,0,29.06,0,1.74-.46,2.23-2.2,2.2-4.71-.09-4.71,0-4.71-4.72Z"></path><path class="cls-7" d="M564.7,20.06c0,1.09,0,2.17,0,3.25a6.87,6.87,0,0,1-8,5.12,7.1,7.1,0,0,1-5.71-6.75A7,7,0,0,1,557,14.92,6.78,6.78,0,0,1,564.7,20.06Z"></path><path class="cls-1" d="M481.16,45.51a17,17,0,0,1-7.27-1.28c-4.46-2-7.64-5.06-8.15-10.17-.53-5.4,2-9.29,6.54-11.83A17.11,17.11,0,0,1,489.2,22c5.34,2.75,7.74,7.31,7,12.41s-5,9.45-10.52,10.62A16.21,16.21,0,0,1,481.16,45.51Z"></path><path class="cls-8" d="M558,27.35A5.67,5.67,0,1,1,558,16a5.67,5.67,0,1,1,0,11.33Z"></path><path class="cls-9" d="M561.36,25.23c-1.69.7-2.18-.42-2.7-1.61-.23-.54-.33-1.45-1.22-1.24s-.36,1-.45,1.49.31,1.55-.92,1.53-.83-.94-.86-1.57a17.14,17.14,0,0,1,0-3c.12-1-.67-2.57.55-2.9a6,6,0,0,1,5.05.5,1.58,1.58,0,0,1,.37,2.47c-1.65,1.31-.73,2.4-.09,3.61A4.55,4.55,0,0,1,561.36,25.23Z"></path><path class="cls-10" d="M558.14,21.09c-.83.12-1.24-.16-1.22-1,0-.71,0-1.29,1-1.23.79,0,1.52.24,1.6,1.1S559,21.13,558.14,21.09Z"></path></g></g></svg> 